<svg xmlns="http://www.w3.org/2000/svg" width="99" height="24" viewBox="0 0 99 24">
    <g fill="none" fill-rule="evenodd">
        <path fill="#FFF" d="M54.255 14.856c0 .187-.016.38-.068.55-.211.703-.937 1.298-1.844 1.298-.757 0-1.358-.43-1.358-1.343 0-1.396 1.53-1.782 3.27-1.773v1.268zm2.731-2.432c0-2.303-.979-4.328-4.286-4.328-1.699 0-3.047.48-3.782.906l.538 1.85c.672-.425 1.744-.778 2.758-.778 1.678-.005 1.953.954 1.953 1.568v.146c-3.658-.006-5.97 1.266-5.97 3.86 0 1.582 1.177 3.066 3.224 3.066 1.259 0 2.312-.505 2.942-1.313h.062s.418 1.756 2.721 1.084c-.121-.73-.16-1.51-.16-2.448v-3.613zM0 4.961s2.39 9.84 2.771 11.437c.445 1.864 1.248 2.55 3.56 2.087l1.493-6.1c.378-1.516.632-2.596.875-4.138h.043c.17 1.557.414 2.627.725 4.143 0 0 .607 2.769.919 4.223.311 1.455 1.18 2.37 3.445 1.872l3.556-13.524h-2.871l-1.214 5.847c-.327 1.702-.623 3.032-.851 4.589h-.04c-.208-1.542-.472-2.819-.804-4.477L10.343 4.96H7.352L6 10.77c-.383 1.765-.742 3.19-.97 4.694h-.04c-.234-1.416-.545-3.207-.882-4.916 0 0-.803-4.155-1.085-5.587H0M22.815 14.856c0 .187-.016.38-.068.55-.211.703-.937 1.298-1.845 1.298-.756 0-1.357-.43-1.357-1.343 0-1.396 1.53-1.782 3.27-1.773v1.268zm2.73-2.432c0-2.303-.978-4.328-4.285-4.328-1.7 0-3.047.48-3.782.906l.537 1.85c.673-.425 1.744-.778 2.758-.778 1.68-.005 1.954.954 1.954 1.568v.146c-3.659-.006-5.97 1.266-5.97 3.86 0 1.582 1.177 3.066 3.222 3.066 1.26 0 2.313-.505 2.944-1.313h.062s.418 1.756 2.72 1.084c-.12-.73-.16-1.51-.16-2.448v-3.613zM30.102 15.614L30.102 4.961 27.369 4.961 27.369 18.485 30.102 18.485 30.102 15.614M65.865 4.961v9.977c0 1.375.258 2.339.809 2.928.481.514 1.275.848 2.225.848.808 0 1.603-.154 1.978-.294l-.035-2.146c-.279.069-.6.124-1.038.124-.931 0-1.244-.6-1.244-1.835v-3.816h2.38V8.159h-2.38V4.961h-2.695"/>
        <path fill="#FFF" d="M58.809 8.325v10.16h2.82v-5.202c0-.28.016-.526.06-.75.21-1.09 1.039-1.786 2.23-1.786.326 0 .56.035.813.072v-2.66c-.212-.043-.357-.063-.621-.063-1.052 0-2.25.683-2.752 2.146h-.077V8.325H58.81L80.13 7.013M32.016 8.325v10.16h2.748v-5.958c0-.28.032-.575.13-.832.227-.6.782-1.301 1.669-1.301 1.109 0 1.628.941 1.628 2.3v5.791h2.745v-6.03c0-.267.036-.588.114-.824.226-.682.824-1.237 1.649-1.237 1.124 0 1.663.925 1.663 2.524v5.567h2.747v-5.984c0-3.155-1.594-4.405-3.395-4.405-.797 0-1.426.2-1.995.552-.479.295-.907.714-1.281 1.265h-.04c-.435-1.095-1.457-1.817-2.788-1.817-1.71 0-2.478.87-2.945 1.61h-.04v-1.38h-2.609"/>
        <path fill="#FFC220" d="M86.769 7.265l.537-6.097c0-.603-.703-1.098-1.587-1.098-.882 0-1.584.495-1.584 1.098l.536 6.097c.06.367.507.65 1.049.65.541 0 .988-.283 1.049-.65zM82.402 8.581l-4.988-3.515c-.518-.301-1.296.062-1.737.83-.443.769-.365 1.627.153 1.928l5.523 2.584c.346.129.815-.119 1.087-.59l-.002.003c.272-.473.251-1.004-.036-1.24zM90.086 10.408l5.524-2.584c.52-.301.594-1.16.155-1.927-.444-.77-1.223-1.132-1.74-.83L89.037 8.58c-.285.236-.306.767-.035 1.24L89 9.817c.272.472.74.72 1.086.59zM86.769 16.18l.537 6.097c0 .604-.703 1.098-1.587 1.098-.882 0-1.584-.494-1.584-1.098l.536-6.097c.06-.366.507-.649 1.049-.649.541 0 .988.283 1.049.65zM90.086 13.04l5.524 2.58c.52.302.594 1.161.155 1.93-.444.766-1.223 1.13-1.74.83l-4.988-3.512c-.285-.239-.306-.77-.035-1.242.27-.472.738-.717 1.084-.587zM82.402 14.868l-4.988 3.512c-.518.3-1.296-.064-1.737-.83-.443-.769-.365-1.628.153-1.93l5.523-2.58c.346-.131.815.114 1.087.587h-.002c.272.471.251 1.002-.036 1.24zM97.391 17.971h.114c.125 0 .234-.038.234-.147 0-.088-.054-.148-.217-.148-.065 0-.103.006-.13.011v.284zm0 .513h-.168v-.911c.092-.016.19-.028.315-.028.152 0 .228.028.288.071.055.038.092.11.092.192 0 .114-.081.185-.18.218v.01c.083.033.126.105.153.22.027.14.044.196.065.228h-.174c-.027-.032-.048-.114-.07-.24-.022-.098-.082-.142-.212-.142h-.109v.382zm.153-1.196c-.392 0-.69.323-.69.716 0 .404.298.72.7.72.392.006.68-.316.68-.715 0-.398-.288-.72-.685-.72h-.005zm.01-.152c.49 0 .875.382.875.868 0 .497-.386.879-.88.879-.495 0-.886-.382-.886-.88 0-.485.391-.867.886-.867h.005z"/>
    </g>
</svg>
